<svg width="1024" height="1024" viewBox="0 0 1024 1024" fill="none" xmlns="http://www.w3.org/2000/svg">
<g clip-path="url(#clip0_2_2)">
<path d="M171.73 775.471H179.577L180.91 767.738C187.95 726.908 200.846 688.466 219.595 652.374C238.537 615.911 259.053 584.583 281.102 558.312L281.128 558.281L281.154 558.249C303.657 530.958 325.917 504.629 347.934 479.261C402.747 417.166 435.611 358.278 445.139 302.645C445.14 302.638 445.142 302.63 445.143 302.623L454.496 249.385L456.415 238.458H445.32H68.7736H60.9812L59.6046 246.128L39.4453 358.444L37.4779 369.405H48.6144H257.053C253.571 377.508 247.54 387.609 238.446 399.843C224.664 417.9 207.99 438.388 188.406 461.316L188.4 461.322L188.395 461.328C169.015 484.099 149.186 509.494 128.906 537.5C108.297 565.96 89.0381 600.134 71.0821 639.928L71.0626 639.972L71.0435 640.015C53.4723 680.038 40.7792 721.534 32.9693 764.489L30.9726 775.471H42.1346H171.73ZM700.505 546.821L700.63 546.968L700.761 547.11C709.795 556.931 714.86 570.988 714.86 590.482C714.86 609.035 708.24 624.331 694.765 636.964C681.764 649.123 665.626 655.323 645.698 655.323C624.386 655.323 610.844 651.556 603.192 645.775C595.9 639.906 592.376 632.542 592.376 622.88C592.376 619.966 592.584 617.046 593.003 614.118L594.521 603.485H583.781H454.185H446.294L444.996 611.269C442.526 626.092 441.27 640.049 441.27 653.119C441.27 690.451 451.918 720.712 474.309 742.574C504.433 772.159 557.865 785.551 631.299 785.551C705.914 785.551 764.332 765.388 805.001 723.702L805.021 723.682L805.04 723.662C845.357 681.833 865.247 627.794 865.247 562.403C865.247 515.232 850.613 476.86 820.611 448.394C791.3 420.127 753.849 406.212 709.056 406.212C675.517 406.212 647.678 409.62 626.075 416.924L634.111 370.125H855.931H863.732L865.102 362.445L885.261 249.409L887.214 238.458H876.09H524.023H516.199L514.847 246.164L462.289 545.673L460.372 556.599H471.465H594.58H597.906L600.479 554.493L608.374 548.033C608.379 548.029 608.385 548.025 608.39 548.02C621.503 537.374 640.948 531.4 668.018 531.4C681.017 531.4 691.65 536.356 700.505 546.821Z" fill="white" stroke="black" stroke-width="18.6311"/>
<circle cx="950.666" cy="722.035" r="54.1997" fill="#FF4500"/>
</g>
<defs>
<clipPath id="clip0_2_2">
<rect width="1024" height="1024" rx="250" fill="white"/>
</clipPath>
</defs>
</svg>
