<svg width="158" height="17" viewBox="0 0 158 17" fill="none" xmlns="http://www.w3.org/2000/svg">
<path d="M13.5037 4.34265H8.57508L6.59159 15.6425H2.96521L4.9487 4.34265H0L0.560986 1.21715H14.0647L13.5037 4.34265Z" fill="white"/>
<path d="M21.5236 1.21715C23.0463 1.21715 24.1282 1.55107 24.7693 2.21891C25.2502 2.72647 25.4906 3.3676 25.4906 4.1423C25.4906 4.40943 25.4639 4.68992 25.4105 4.98377L25.13 6.54652C24.9697 7.41471 24.6892 8.11595 24.2885 8.65022C23.9011 9.18449 23.467 9.56516 22.9862 9.79223L24.8094 15.6425H20.7623L19.0793 10.253H17.8371L17.0157 15.6425H13.1689L15.7134 1.21715H21.5236ZM20.2614 4.34265H18.7588L18.2379 7.82878H19.6403C20.3482 7.82878 20.8558 7.66182 21.163 7.3279C21.4702 6.98062 21.6238 6.52649 21.6238 5.9655C21.6238 4.8836 21.1697 4.34265 20.2614 4.34265Z" fill="white"/>
<path d="M33.4496 15.6425L33.5698 12.497H30.2239L29.2422 15.6425H25.4155L30.5645 1.21715H37.1762L37.2563 15.6425H33.4496ZM32.6282 4.72332L31.0454 9.81226H33.67L33.8904 4.72332H32.6282Z" fill="white"/>
<path d="M52.8162 1.21715L50.2917 15.6425H46.6653L44.1409 7.74864L42.7785 15.6425H39.1521L41.6966 1.21715H45.4231L47.9075 8.59011L49.2098 1.21715H52.8162Z" fill="white"/>
<path d="M56.9487 11.5353C56.9487 12.4569 57.6099 12.9177 58.9322 12.9177C60.2679 12.9177 60.9357 12.5037 60.9357 11.6755C60.9357 11.2348 60.7087 10.8741 60.2545 10.5936C59.8004 10.3131 59.2461 10.0794 58.5916 9.89241C57.9505 9.70541 57.3027 9.4917 56.6482 9.25128C56.0071 8.9975 55.4594 8.61015 55.0053 8.08923C54.5512 7.55496 54.3241 6.8938 54.3241 6.10575C54.3241 2.75319 56.4812 1.0769 60.7955 1.0769C62.3716 1.0769 63.5604 1.37743 64.3618 1.97849C65.1765 2.56619 65.5839 3.38763 65.5839 4.44282C65.5839 4.83017 65.5305 5.20416 65.4236 5.5648C65.3301 5.91207 65.23 6.15917 65.1231 6.3061L64.9628 6.54652H61.4166C61.7104 6.23931 61.8574 5.85197 61.8574 5.38448C61.8574 4.51629 61.2897 4.08219 60.1544 4.08219C58.7252 4.08219 58.0106 4.53632 58.0106 5.44458C58.0106 5.89872 58.2377 6.25935 58.6918 6.52649C59.1459 6.79362 59.6936 7.00733 60.3347 7.16761C60.9892 7.31454 61.6437 7.50153 62.2981 7.7286C62.9526 7.95567 63.5069 8.33634 63.9611 8.87061C64.4152 9.39152 64.6423 10.0727 64.6423 10.9142C64.6423 12.6105 64.1347 13.8727 63.1196 14.7009C62.1045 15.5156 60.5417 15.923 58.4313 15.923C56.321 15.923 54.8784 15.549 54.1037 14.801C53.5294 14.24 53.2422 13.4654 53.2422 12.4769C53.2422 12.103 53.2823 11.6956 53.3624 11.2548L53.4225 10.9342H57.0289L56.9888 11.1747C56.9621 11.3082 56.9487 11.4284 56.9487 11.5353Z" fill="white"/>
<path d="M75.991 10.3532H70.6616L69.74 15.6425H66.1136L68.6581 1.21715H78.7158L78.1548 4.34265H71.7034L71.2025 7.22772H76.5319L75.991 10.3532Z" fill="white"/>
<path d="M85.9597 1.0769C89.1787 1.0769 90.7882 2.39255 90.7882 5.02384C90.7882 5.46462 90.7415 5.93879 90.648 6.44635L89.9468 10.4534C89.6262 12.31 88.9316 13.6857 87.8631 14.5806C86.7945 15.4756 85.2919 15.923 83.3552 15.923C81.4184 15.923 80.0694 15.4756 79.308 14.5806C78.7871 13.9662 78.5267 13.1181 78.5267 12.0362C78.5267 11.5553 78.5801 11.0277 78.687 10.4534L79.3882 6.44635C80.016 2.86672 82.2065 1.0769 85.9597 1.0769ZM83.8961 12.8175C84.564 12.8175 85.0982 12.6439 85.4989 12.2966C85.8996 11.9494 86.1801 11.3082 86.3404 10.3733L87.0216 6.52649C87.0617 6.25935 87.0817 6.01893 87.0817 5.80522C87.0817 4.72332 86.5341 4.18236 85.4388 4.18236C84.0631 4.20908 83.2416 4.99045 82.9745 6.52649L82.2933 10.3733C82.2399 10.7072 82.2132 11.0544 82.2132 11.4151C82.2132 12.3501 82.7741 12.8175 83.8961 12.8175Z" fill="white"/>
<path d="M99.8254 1.21715C101.348 1.21715 102.43 1.55107 103.071 2.21891C103.552 2.72647 103.792 3.3676 103.792 4.1423C103.792 4.40943 103.766 4.68992 103.712 4.98377L103.432 6.54652C103.271 7.41471 102.991 8.11595 102.59 8.65022C102.203 9.18449 101.769 9.56516 101.288 9.79223L103.111 15.6425H99.064L97.3811 10.253H96.1389L95.3174 15.6425H91.4707L94.0152 1.21715H99.8254ZM98.5632 4.34265H97.0605L96.5396 7.82878H97.9421C98.65 7.82878 99.1575 7.66182 99.4647 7.3279C99.7719 6.98062 99.9256 6.52649 99.9256 5.9655C99.9256 4.8836 99.4714 4.34265 98.5632 4.34265Z" fill="white"/>
<path d="M110.93 1.21715L113.074 8.1293L117.682 1.21715H121.468L118.924 15.6425H115.298L116.74 7.50821L113.655 12.3567H111.03L109.668 7.50821L108.225 15.6425H104.619L107.163 1.21715H110.93Z" fill="white"/>
<path d="M131.858 15.8881H132.078L132.115 15.6711C132.313 14.5251 132.675 13.4462 133.201 12.4332C133.733 11.4098 134.309 10.5305 134.927 9.79316L134.927 9.79317L134.929 9.79141C135.56 9.02544 136.185 8.28646 136.803 7.57447C138.342 5.83164 139.264 4.17884 139.531 2.61738C139.531 2.6172 139.531 2.61702 139.531 2.61684L139.794 1.12263L139.848 0.815936H139.536H128.968H128.749L128.711 1.0312L128.145 4.18354L128.09 4.49119H128.402H134.252C134.155 4.71861 133.985 5.00211 133.73 5.34546C133.343 5.85227 132.875 6.42729 132.326 7.0708L132.325 7.07116C131.781 7.71027 131.225 8.42301 130.656 9.20904C130.077 10.0078 129.537 10.967 129.033 12.0839L129.033 12.0839L129.032 12.0863C128.539 13.2096 128.182 14.3743 127.963 15.5799L127.907 15.8881H128.22H131.858ZM146.699 9.47065L146.698 9.47079L146.706 9.47878C146.959 9.7544 147.102 10.1489 147.102 10.6961C147.102 11.2167 146.916 11.646 146.538 12.0005C146.173 12.3419 145.72 12.516 145.16 12.516C144.562 12.516 144.182 12.4102 143.967 12.248C143.763 12.0832 143.664 11.8765 143.664 11.6054C143.664 11.5236 143.67 11.4416 143.681 11.3595L143.724 11.061H143.423H139.785H139.564L139.527 11.2795C139.458 11.6955 139.423 12.0873 139.423 12.4541C139.423 13.5018 139.722 14.3511 140.35 14.9647C141.195 15.7951 142.695 16.171 144.756 16.171C146.85 16.171 148.49 15.6051 149.631 14.4351L149.633 14.434C150.764 13.26 151.322 11.7433 151.322 9.90798C151.322 8.58406 150.912 7.50709 150.07 6.70816C149.247 5.91477 148.196 5.52424 146.939 5.52424C145.997 5.52424 145.216 5.61987 144.61 5.82488L144.835 4.51139H151.061H151.28L151.318 4.29584L151.884 1.1233L151.939 0.815936H151.627H141.745H141.526L141.488 1.0322L140.013 9.43844L139.959 9.74508H140.27H143.726H143.819L143.891 9.68598L144.113 9.50468C144.113 9.50463 144.113 9.50458 144.113 9.50452C144.481 9.20558 145.027 9.03783 145.787 9.03783C146.152 9.03783 146.45 9.17693 146.699 9.47065Z" fill="white" stroke="white" stroke-width="0.522914"/>
<circle cx="155.482" cy="13.7065" r="2.20287" fill="#FF4500"/>
</svg>
